<svg xmlns="http://www.w3.org/2000/svg" xmlns:xlink="http://www.w3.org/1999/xlink" width="23" height="23" version="1.1" viewBox="0 0 23 23"><title>icn-menu</title><g id="01-UI-V2.0" fill="none" fill-rule="evenodd" stroke="none" stroke-width="1"><g id="02.4-OC-Stock-Nav-items/Hover-and-pressed" fill="#E8E9EB" fill-rule="nonzero" transform="translate(-46.000000, -420.000000)"><g id="icn-menu" transform="translate(46.000000, 420.000000)"><path id="4" d="M24.5128205,10.0245726 L-1.51282051,10.0245726 C-2.33416706,10.0245726 -3,10.6681633 -3,11.4620726 C-3,12.255982 -2.33416706,12.8995726 -1.51282051,12.8995726 L24.5128205,12.8995726 C25.3341671,12.8995726 26,12.255982 26,11.4620726 C26,10.6681633 25.3341671,10.0245726 24.5128205,10.0245726 Z" transform="translate(11.500000, 11.462073) rotate(-315.000000) translate(-11.500000, -11.462073)"/><path id="3" d="M24.5128205,10.0245726 L-1.51282051,10.0245726 C-2.33416706,10.0245726 -3,10.6681633 -3,11.4620726 C-3,12.255982 -2.33416706,12.8995726 -1.51282051,12.8995726 L24.5128205,12.8995726 C25.3341671,12.8995726 26,12.255982 26,11.4620726 C26,10.6681633 25.3341671,10.0245726 24.5128205,10.0245726 Z" transform="translate(11.500000, 11.462073) rotate(-45.000000) translate(-11.500000, -11.462073)"/></g></g></g></svg>